<?xml version="1.0" encoding="UTF-8" standalone="no"?>
<svg
   xmlns:dc="http://purl.org/dc/elements/1.1/"
   xmlns:cc="http://creativecommons.org/ns#"
   xmlns:rdf="http://www.w3.org/1999/02/22-rdf-syntax-ns#"
   xmlns:svg="http://www.w3.org/2000/svg"
   xmlns="http://www.w3.org/2000/svg"
   version="1.1"
   id="Layer_1"
   x="0px"
   y="0px"
   viewBox="0 0 256 256"
   xml:space="preserve"
   width="256"
   height="256"><metadata
   id="metadata22"><rdf:RDF><cc:Work
       rdf:about=""><dc:format>image/svg+xml</dc:format><dc:type
         rdf:resource="http://purl.org/dc/dcmitype/StillImage" /><dc:title></dc:title></cc:Work></rdf:RDF></metadata><defs
   id="defs20">
<filter
   style="color-interpolation-filters:sRGB"
   id="filter869"><feFlood
     flood-opacity="0.498039"
     flood-color="rgb(0,0,0)"
     result="flood"
     id="feFlood859" /><feComposite
     in="flood"
     in2="SourceGraphic"
     operator="in"
     result="composite1"
     id="feComposite861" /><feGaussianBlur
     in="composite1"
     stdDeviation="3"
     result="blur"
     id="feGaussianBlur863" /><feOffset
     dx="0"
     dy="0"
     result="offset"
     id="feOffset865" /><feComposite
     in="SourceGraphic"
     in2="offset"
     operator="over"
     result="composite2"
     id="feComposite867" /></filter></defs>
<style
   type="text/css"
   id="style2">
	.st0{fill:#E44432;}
	.st1{fill:#FFFFFF;}
</style>
<g
   id="g893"
   transform="matrix(2.3238924,0,0,2.3238924,-135.5294,-452.97311)"><path
     id="XMLID_16_"
     class="st0"
     d="M 147.8,204.1 H 79 c -6.3,0 -11.5,5.2 -11.5,11.5 v 68.8 c 0,6.3 5.2,11.5 11.5,11.5 h 68.8 c 6.3,0 11.5,-5.2 11.5,-11.5 v -68.8 c 0,-6.3 -5,-11.5 -11.5,-11.5 z"
     style="filter:url(#filter869)" /><path
     id="XMLID_17_"
     class="st1"
     d="m 87.1,247.1 c 1.7,-0.8 36.3,-20.9 37.1,-21.3 0.8,-0.4 0.8,-1.9 0,-2.3 -0.8,-0.4 -2.5,-1.5 -3.1,-1.9 -0.6,-0.4 -1.9,-0.6 -2.9,0 -0.4,0.2 -30,17.3 -31.1,17.9 -1.3,0.6 -2.7,0.6 -3.8,0 -0.8,-0.6 -15.6,-9.2 -15.6,-9.2 v 7.7 c 3.8,2.3 13.3,7.7 15.6,9 1.3,0.9 2.6,0.9 3.8,0.1 z" /><path
     id="XMLID_18_"
     class="st1"
     d="m 87.1,262.5 c 1.7,-0.8 36.3,-20.9 37.1,-21.3 0.8,-0.4 0.8,-1.9 0,-2.3 -0.8,-0.4 -2.5,-1.5 -3.1,-1.9 -0.6,-0.4 -1.9,-0.6 -2.9,0 -0.4,0.2 -30,17.3 -31.1,17.9 -1.3,0.6 -2.7,0.6 -3.8,0 -1,-0.6 -15.9,-9.2 -15.9,-9.2 v 7.7 c 3.8,2.3 13.3,7.7 15.6,9 1.6,0.9 2.9,0.9 4.1,0.1 z" /><path
     id="XMLID_19_"
     class="st1"
     d="m 87.1,277.9 c 1.7,-0.8 36.3,-20.9 37.1,-21.3 0.8,-0.4 0.8,-1.9 0,-2.3 -0.8,-0.4 -2.5,-1.5 -3.1,-1.9 -0.6,-0.4 -1.9,-0.6 -2.9,0 -0.4,0.2 -30,17.3 -31.1,17.9 -1.3,0.6 -2.7,0.6 -3.8,0 -0.8,-0.6 -15.6,-9.2 -15.6,-9.2 v 7.7 c 3.8,2.3 13.3,7.7 15.6,9 1.3,1 2.6,1 3.8,0.1 z" /></g>
</svg>
