<?xml version="1.0" encoding="UTF-8" standalone="no"?>
<svg
   xmlns:dc="http://purl.org/dc/elements/1.1/"
   xmlns:cc="http://creativecommons.org/ns#"
   xmlns:rdf="http://www.w3.org/1999/02/22-rdf-syntax-ns#"
   xmlns:svg="http://www.w3.org/2000/svg"
   xmlns="http://www.w3.org/2000/svg"
   xmlns:sodipodi="http://sodipodi.sourceforge.net/DTD/sodipodi-0.dtd"
   xmlns:inkscape="http://www.inkscape.org/namespaces/inkscape"
   height="256"
   width="256"
   version="1.1"
   id="svg4559"
   sodipodi:docname="WhatsApp.svg"
   inkscape:version="0.92.1 r15371">
  <metadata
     id="metadata4565">
    <rdf:RDF>
      <cc:Work
         rdf:about="">
        <dc:format>image/svg+xml</dc:format>
        <dc:type
           rdf:resource="http://purl.org/dc/dcmitype/StillImage" />
        <dc:title></dc:title>
      </cc:Work>
    </rdf:RDF>
  </metadata>
  <defs
     id="defs4563" />
  <sodipodi:namedview
     pagecolor="#ffffff"
     bordercolor="#666666"
     borderopacity="1"
     objecttolerance="10"
     gridtolerance="10"
     guidetolerance="10"
     inkscape:pageopacity="0"
     inkscape:pageshadow="2"
     inkscape:window-width="1920"
     inkscape:window-height="1019"
     id="namedview4561"
     showgrid="false"
     inkscape:zoom="2.045"
     inkscape:cx="126.09638"
     inkscape:cy="116.39641"
     inkscape:window-x="0"
     inkscape:window-y="27"
     inkscape:window-maximized="1"
     inkscape:current-layer="svg4559" />
  <g
     id="g3370"
     transform="matrix(1.2994487,0,0,1.2798497,-1.9275557,-31.509201)">
    <g
       id="g5"
       transform="matrix(1.3755,0,0,1.4,-42.3,-26.4)">
      <path
         id="path7"
         d="m 37.02,174.14 c 3.598,-11.617 7.768,-22.663 11.582,-34.064 -25.275,-44.204 6.003,-93.969 48.369,-98.102 40,-3.904 72.797,24.828 72.896,64.04 0.105,41.373 -40.022,76.115 -85.159,61.994 -3.404,-1.064 -7.617,-4.535 -11.581,-4.769 -5.541,-0.326 -12.801,3.651 -18.395,5.449 -6.131,1.974 -11.462,3.95 -17.712,5.452 z m 37.47,-23.164 c 36.449,22.121 80.094,-2.69 83.795,-38.832 3.351,-32.718 -22.773,-61.829 -57.908,-59.271 -40.11,2.921 -64.205,50.801 -39.513,85.84 -2.186,5.99 -4.231,12.12 -6.132,18.395 6.693,-1.937 12.862,-4.398 19.758,-6.132 z"
         inkscape:connector-curvature="0"
         style="fill:#ffffff" />
      <linearGradient
         id="green"
         y2="53"
         gradientUnits="userSpaceOnUse"
         y1="159"
         x2="105"
         x1="105">
        <stop
           stop-color="#64D840"
           offset="0"
           id="stop4546" />
        <stop
           stop-color="#12A100"
           offset=".5"
           id="stop4548" />
        <stop
           stop-color="#64D840"
           offset="1"
           id="stop4550" />
      </linearGradient>
      <path
         d="m 54.734,157.1 c 1.899,-6.275 3.945,-12.405 6.131,-18.395 -24.692,-35.039 -0.597,-82.918 39.514,-85.84 35.134,-2.559 61.258,26.552 57.908,59.271 -3.703,36.142 -47.348,60.952 -83.796,38.832 -6.897,1.734 -13.066,4.195 -19.757,6.132 z M 73.128,99.198 c 5.844,16.438 30.066,38.703 47.688,39.513 8.354,0.385 18.23,-3.949 17.713,-15.669 -5.03,-3.599 -10.829,-6.431 -17.032,-8.856 -2.969,2.935 -5.302,6.505 -8.856,8.856 -10.687,-4.755 -18.885,-11.998 -23.844,-22.482 9.764,-5.326 3.834,-17.188 0,-25.207 C 73.648,70.789 69.659,89.444 73.128,99.198 Z"
         id="path4553"
         inkscape:connector-curvature="0"
         style="fill:url(#green)" />
      <path
         d="m 88.797,75.353 c 3.834,8.02 9.764,19.881 0,25.207 4.959,10.484 13.158,17.727 23.844,22.482 3.555,-2.351 5.888,-5.921 8.856,-8.856 6.204,2.427 12.002,5.257 17.032,8.856 0.517,11.72 -9.359,16.054 -17.713,15.669 -17.63,-0.81 -41.848,-23.07 -47.692,-39.512 -3.469,-9.754 0.52,-28.409 15.669,-23.845 z"
         id="path4555"
         inkscape:connector-curvature="0"
         style="fill:#ffffff" />
    </g>
  </g>
</svg>
